<svg width="182" height="144" viewBox="0 0 182 144" fill="none" xmlns="http://www.w3.org/2000/svg">
<path opacity="0.5" d="M4.99951 8.49999L4.99951 3.49999L-0.000488281 3.49999V8.49999H4.99951ZM4.99951 138.5H-0.000488281V143.5H4.99951V138.5ZM58.4995 143.5H63.4995V133.5H58.4995V143.5ZM133 138.5L133 143.5L133.044 143.5L133.088 143.499L133 138.5ZM176 108L180.991 108.296L176 108ZM133 73.5L131.591 78.2975L131.807 78.361L132.028 78.4047L133 73.5ZM93.5 38.5L88.5033 38.3171L93.5 38.5ZM133 5.99999L132.773 1.00513L133 5.99999ZM169.425 33.5174C170.539 36.0441 173.491 37.1891 176.017 36.0749C178.544 34.9608 179.689 32.0093 178.575 29.4826L169.425 33.5174ZM4.99951 143.5H58.4995V133.5H4.99951V143.5ZM4.99951 8.49999C4.99951 13.5 4.99961 13.5 4.99981 13.5C5.00001 13.5 5.0003 13.5 5.0007 13.5C5.00149 13.5 5.00268 13.5 5.00426 13.5C5.00743 13.5 5.01216 13.5 5.01846 13.5C5.03106 13.5 5.04992 13.5 5.07493 13.5C5.12497 13.5 5.19964 13.5 5.29821 13.5C5.49535 13.5 5.78807 13.5 6.17039 13.5C6.93503 13.5 8.05806 13.5 9.49163 13.5C12.3588 13.5 16.4681 13.5 21.4368 13.5C31.3743 13.5 44.7493 13.5 58.4995 13.5L58.4995 3.49999C44.7493 3.49998 31.3743 3.49998 21.4368 3.49999C16.4681 3.49999 12.3588 3.49999 9.49163 3.49999C8.05806 3.49999 6.93503 3.49999 6.17039 3.49999C5.78807 3.49999 5.49535 3.49999 5.29821 3.49999C5.19964 3.49999 5.12497 3.49999 5.07493 3.49999C5.04992 3.49999 5.03106 3.49999 5.01846 3.49999C5.01216 3.49999 5.00742 3.49999 5.00426 3.49999C5.00268 3.49999 5.00149 3.49999 5.0007 3.49999C5.0003 3.49999 5.00001 3.49999 4.99981 3.49999C4.99961 3.49999 4.99951 3.49999 4.99951 8.49999ZM-0.000488281 8.49999V73.5H9.99951V8.49999H-0.000488281ZM-0.000488281 73.5V138.5H9.99951V73.5H-0.000488281ZM4.99951 73.5C4.99951 78.5 4.99966 78.5 4.99997 78.5C5.00027 78.5 5.00073 78.5 5.00134 78.5C5.00195 78.5 5.00271 78.5 5.00362 78.5C5.00453 78.5 5.00559 78.5 5.0068 78.5C5.00802 78.5 5.00938 78.5 5.01089 78.5C5.01241 78.5 5.01407 78.5 5.01588 78.5C5.0177 78.5 5.01966 78.5 5.02177 78.5C5.02388 78.5 5.02615 78.5 5.02855 78.5C5.03096 78.5 5.03352 78.5 5.03623 78.5C5.03894 78.5 5.04179 78.5 5.04479 78.5C5.04779 78.5 5.05094 78.5 5.05424 78.5C5.05754 78.5 5.06098 78.5 5.06457 78.5C5.06816 78.5 5.0719 78.5 5.07579 78.5C5.07967 78.5 5.0837 78.5 5.08787 78.5C5.09205 78.5 5.09637 78.5 5.10084 78.5C5.1053 78.5 5.10991 78.5 5.11467 78.5C5.11943 78.5 5.12433 78.5 5.12937 78.5C5.13442 78.5 5.1396 78.5 5.14494 78.5C5.15027 78.5 5.15575 78.5 5.16137 78.5C5.16699 78.5 5.17275 78.5 5.17865 78.5C5.18456 78.5 5.19061 78.5 5.1968 78.5C5.20299 78.5 5.20932 78.5 5.21579 78.5C5.22227 78.5 5.22888 78.5 5.23564 78.5C5.2424 78.5 5.2493 78.5 5.25633 78.5C5.26337 78.5 5.27055 78.5 5.27787 78.5C5.28519 78.5 5.29265 78.5 5.30025 78.5C5.30785 78.5 5.31559 78.5 5.32347 78.5C5.33135 78.5 5.33937 78.5 5.34752 78.5C5.35568 78.5 5.36397 78.5 5.37241 78.5C5.38084 78.5 5.38941 78.5 5.39812 78.5C5.40683 78.5 5.41568 78.5 5.42466 78.5C5.43365 78.5 5.44277 78.5 5.45203 78.5C5.46128 78.5 5.47068 78.5 5.48021 78.5C5.48974 78.5 5.49941 78.5 5.50921 78.5C5.51902 78.5 5.52896 78.5 5.53903 78.5C5.5491 78.5 5.55931 78.5 5.56966 78.5C5.58 78.5 5.59048 78.5 5.60109 78.5C5.61171 78.5 5.62245 78.5 5.63334 78.5C5.64422 78.5 5.65523 78.5 5.66638 78.5C5.67753 78.5 5.68881 78.5 5.70022 78.5C5.71164 78.5 5.72319 78.5 5.73486 78.5C5.74654 78.5 5.75836 78.5 5.7703 78.5C5.78224 78.5 5.79432 78.5 5.80652 78.5C5.81873 78.5 5.83107 78.5 5.84354 78.5C5.85601 78.5 5.8686 78.5 5.88133 78.5C5.89406 78.5 5.90692 78.5 5.91991 78.5C5.9329 78.5 5.94602 78.5 5.95927 78.5C5.97252 78.5 5.9859 78.5 5.9994 78.5C6.01291 78.5 6.02655 78.5 6.04031 78.5C6.05408 78.5 6.06797 78.5 6.08199 78.5C6.09601 78.5 6.11016 78.5 6.12443 78.5C6.13871 78.5 6.15311 78.5 6.16764 78.5C6.18217 78.5 6.19682 78.5 6.21161 78.5C6.22639 78.5 6.2413 78.5 6.25633 78.5C6.27137 78.5 6.28653 78.5 6.30181 78.5C6.3171 78.5 6.33251 78.5 6.34805 78.5C6.36358 78.5 6.37924 78.5 6.39503 78.5C6.41081 78.5 6.42672 78.5 6.44276 78.5C6.45879 78.5 6.47495 78.5 6.49123 78.5C6.50751 78.5 6.52391 78.5 6.54044 78.5C6.55697 78.5 6.57362 78.5 6.59039 78.5C6.60716 78.5 6.62406 78.5 6.64107 78.5C6.65809 78.5 6.67523 78.5 6.69249 78.5C6.70975 78.5 6.72713 78.5 6.74463 78.5C6.76213 78.5 6.77975 78.5 6.7975 78.5C6.81524 78.5 6.8331 78.5 6.85109 78.5C6.86907 78.5 6.88717 78.5 6.9054 78.5C6.92362 78.5 6.94196 78.5 6.96042 78.5C6.97888 78.5 6.99746 78.5 7.01616 78.5C7.03486 78.5 7.05368 78.5 7.07261 78.5C7.09154 78.5 7.1106 78.5 7.12977 78.5C7.14894 78.5 7.16822 78.5 7.18763 78.5C7.20703 78.5 7.22655 78.5 7.24619 78.5C7.26583 78.5 7.28558 78.5 7.30545 78.5C7.32532 78.5 7.34531 78.5 7.36541 78.5C7.38551 78.5 7.40573 78.5 7.42606 78.5C7.44639 78.5 7.46684 78.5 7.4874 78.5C7.50796 78.5 7.52863 78.5 7.54942 78.5C7.57021 78.5 7.59112 78.5 7.61213 78.5C7.63315 78.5 7.65428 78.5 7.67552 78.5C7.69676 78.5 7.71812 78.5 7.73959 78.5C7.76106 78.5 7.78264 78.5 7.80433 78.5C7.82602 78.5 7.84783 78.5 7.86975 78.5C7.89166 78.5 7.91369 78.5 7.93583 78.5C7.95797 78.5 7.98022 78.5 8.00258 78.5C8.02494 78.5 8.04741 78.5 8.06999 78.5C8.09257 78.5 8.11526 78.5 8.13806 78.5C8.16086 78.5 8.18377 78.5 8.20679 78.5C8.22981 78.5 8.25294 78.5 8.27617 78.5C8.29941 78.5 8.32275 78.5 8.3462 78.5C8.36966 78.5 8.39322 78.5 8.41689 78.5C8.44055 78.5 8.46433 78.5 8.48821 78.5C8.51209 78.5 8.53608 78.5 8.56018 78.5C8.58428 78.5 8.60848 78.5 8.63279 78.5C8.6571 78.5 8.68151 78.5 8.70603 78.5C8.73055 78.5 8.75518 78.5 8.77991 78.5C8.80464 78.5 8.82947 78.5 8.85441 78.5C8.87935 78.5 8.9044 78.5 8.92955 78.5C8.9547 78.5 8.97995 78.5 9.00531 78.5C9.03066 78.5 9.05612 78.5 9.08168 78.5C9.10725 78.5 9.13291 78.5 9.15868 78.5C9.18445 78.5 9.21032 78.5 9.2363 78.5C9.26227 78.5 9.28834 78.5 9.31452 78.5C9.3407 78.5 9.36698 78.5 9.39335 78.5C9.41973 78.5 9.44621 78.5 9.4728 78.5C9.49938 78.5 9.52606 78.5 9.55284 78.5C9.57962 78.5 9.6065 78.5 9.63348 78.5C9.66047 78.5 9.68755 78.5 9.71473 78.5C9.74191 78.5 9.76918 78.5 9.79656 78.5C9.82394 78.5 9.85142 78.5 9.87899 78.5C9.90656 78.5 9.93424 78.5 9.96201 78.5C9.98978 78.5 10.0176 78.5 10.0456 78.5C10.0736 78.5 10.1016 78.5 10.1298 78.5C10.158 78.5 10.1862 78.5 10.2146 78.5C10.2429 78.5 10.2714 78.5 10.2999 78.5C10.3284 78.5 10.3571 78.5 10.3858 78.5C10.4145 78.5 10.4434 78.5 10.4723 78.5C10.5012 78.5 10.5302 78.5 10.5594 78.5C10.5885 78.5 10.6177 78.5 10.647 78.5C10.6763 78.5 10.7057 78.5 10.7351 78.5C10.7646 78.5 10.7942 78.5 10.8239 78.5C10.8536 78.5 10.8833 78.5 10.9132 78.5C10.943 78.5 10.973 78.5 11.003 78.5C11.0331 78.5 11.0632 78.5 11.0934 78.5C11.1236 78.5 11.154 78.5 11.1844 78.5C11.2148 78.5 11.2453 78.5 11.2759 78.5C11.3064 78.5 11.3371 78.5 11.3679 78.5C11.3986 78.5 11.4295 78.5 11.4604 78.5C11.4914 78.5 11.5224 78.5 11.5536 78.5C11.5847 78.5 11.6159 78.5 11.6472 78.5C11.6785 78.5 11.7099 78.5 11.7413 78.5C11.7728 78.5 11.8044 78.5 11.836 78.5C11.8677 78.5 11.8994 78.5 11.9312 78.5C11.9631 78.5 11.995 78.5 12.027 78.5C12.059 78.5 12.0911 78.5 12.1232 78.5C12.1554 78.5 12.1877 78.5 12.22 78.5C12.2523 78.5 12.2848 78.5 12.3173 78.5C12.3498 78.5 12.3824 78.5 12.415 78.5C12.4477 78.5 12.4805 78.5 12.5133 78.5C12.5462 78.5 12.5791 78.5 12.6121 78.5C12.6451 78.5 12.6782 78.5 12.7114 78.5C12.7446 78.5 12.7779 78.5 12.8112 78.5C12.8445 78.5 12.878 78.5 12.9115 78.5C12.945 78.5 12.9786 78.5 13.0123 78.5C13.0459 78.5 13.0797 78.5 13.1135 78.5C13.1473 78.5 13.1813 78.5 13.2153 78.5C13.2492 78.5 13.2833 78.5 13.3175 78.5C13.3516 78.5 13.3859 78.5 13.4202 78.5C13.4545 78.5 13.4889 78.5 13.5234 78.5C13.5578 78.5 13.5924 78.5 13.627 78.5C13.6616 78.5 13.6963 78.5 13.7311 78.5C13.7659 78.5 13.8008 78.5 13.8357 78.5C13.8707 78.5 13.9057 78.5 13.9408 78.5C13.9759 78.5 14.011 78.5 14.0463 78.5C14.0815 78.5 14.1168 78.5 14.1522 78.5C14.1876 78.5 14.2231 78.5 14.2587 78.5C14.2942 78.5 14.3298 78.5 14.3655 78.5C14.4012 78.5 14.437 78.5 14.4729 78.5C14.5087 78.5 14.5446 78.5 14.5806 78.5C14.6166 78.5 14.6527 78.5 14.6888 78.5C14.725 78.5 14.7612 78.5 14.7975 78.5C14.8338 78.5 14.8701 78.5 14.9066 78.5C14.943 78.5 14.9795 78.5 15.0161 78.5C15.0527 78.5 15.0893 78.5 15.1261 78.5C15.1628 78.5 15.1996 78.5 15.2364 78.5C15.2733 78.5 15.3102 78.5 15.3473 78.5C15.3843 78.5 15.4213 78.5 15.4585 78.5C15.4956 78.5 15.5328 78.5 15.5701 78.5C15.6074 78.5 15.6448 78.5 15.6822 78.5C15.7196 78.5 15.7571 78.5 15.7947 78.5C15.8322 78.5 15.8699 78.5 15.9076 78.5C15.9453 78.5 15.983 78.5 16.0209 78.5C16.0587 78.5 16.0966 78.5 16.1346 78.5C16.1725 78.5 16.2106 78.5 16.2487 78.5C16.2868 78.5 16.3249 78.5 16.3631 78.5C16.4014 78.5 16.4397 78.5 16.478 78.5C16.5164 78.5 16.5548 78.5 16.5933 78.5C16.6318 78.5 16.6704 78.5 16.709 78.5C16.7476 78.5 16.7863 78.5 16.8251 78.5C16.8638 78.5 16.9026 78.5 16.9415 78.5C16.9804 78.5 17.0193 78.5 17.0583 78.5C17.0973 78.5 17.1364 78.5 17.1755 78.5C17.2147 78.5 17.2539 78.5 17.2931 78.5C17.3324 78.5 17.3717 78.5 17.4111 78.5C17.4504 78.5 17.4899 78.5 17.5294 78.5C17.5689 78.5 17.6084 78.5 17.6481 78.5C17.6877 78.5 17.7274 78.5 17.7671 78.5C17.8069 78.5 17.8467 78.5 17.8865 78.5C17.9264 78.5 17.9663 78.5 18.0063 78.5C18.0463 78.5 18.0863 78.5 18.1264 78.5C18.1665 78.5 18.2066 78.5 18.2469 78.5C18.2871 78.5 18.3273 78.5 18.3677 78.5C18.408 78.5 18.4484 78.5 18.4888 78.5C18.5293 78.5 18.5698 78.5 18.6103 78.5C18.6509 78.5 18.6915 78.5 18.7322 78.5C18.7728 78.5 18.8136 78.5 18.8543 78.5C18.8951 78.5 18.936 78.5 18.9769 78.5C19.0177 78.5 19.0587 78.5 19.0997 78.5C19.1407 78.5 19.1818 78.5 19.2229 78.5C19.264 78.5 19.3051 78.5 19.3463 78.5C19.3876 78.5 19.4288 78.5 19.4702 78.5C19.5115 78.5 19.5529 78.5 19.5943 78.5C19.6357 78.5 19.6772 78.5 19.7187 78.5C19.7603 78.5 19.8018 78.5 19.8435 78.5C19.8851 78.5 19.9268 78.5 19.9685 78.5C20.0103 78.5 20.0521 78.5 20.0939 78.5C20.1358 78.5 20.1777 78.5 20.2196 78.5C20.2615 78.5 20.3035 78.5 20.3456 78.5C20.3876 78.5 20.4297 78.5 20.4718 78.5C20.514 78.5 20.5562 78.5 20.5984 78.5C20.6406 78.5 20.6829 78.5 20.7253 78.5C20.7676 78.5 20.81 78.5 20.8524 78.5C20.8948 78.5 20.9373 78.5 20.9798 78.5C21.0224 78.5 21.0649 78.5 21.1075 78.5C21.1502 78.5 21.1928 78.5 21.2355 78.5C21.2782 78.5 21.321 78.5 21.3638 78.5C21.4066 78.5 21.4495 78.5 21.4923 78.5C21.5352 78.5 21.5782 78.5 21.6212 78.5C21.6641 78.5 21.7072 78.5 21.7502 78.5C21.7933 78.5 21.8364 78.5 21.8796 78.5C21.9227 78.5 21.9659 78.5 22.0092 78.5C22.0524 78.5 22.0957 78.5 22.139 78.5C22.1824 78.5 22.2257 78.5 22.2692 78.5C22.3126 78.5 22.356 78.5 22.3995 78.5C22.443 78.5 22.4866 78.5 22.5302 78.5C22.5737 78.5 22.6174 78.5 22.661 78.5C22.7047 78.5 22.7484 78.5 22.7921 78.5C22.8359 78.5 22.8797 78.5 22.9235 78.5C22.9673 78.5 23.0112 78.5 23.0551 78.5C23.099 78.5 23.1429 78.5 23.1869 78.5C23.2309 78.5 23.2749 78.5 23.319 78.5C23.363 78.5 23.4071 78.5 23.4512 78.5C23.4954 78.5 23.5395 78.5 23.5838 78.5C23.628 78.5 23.6722 78.5 23.7165 78.5C23.7608 78.5 23.8051 78.5 23.8494 78.5C23.8938 78.5 23.9382 78.5 23.9826 78.5C24.027 78.5 24.0715 78.5 24.116 78.5C24.1605 78.5 24.205 78.5 24.2496 78.5C24.2942 78.5 24.3388 78.5 24.3834 78.5C24.428 78.5 24.4727 78.5 24.5174 78.5C24.5621 78.5 24.6069 78.5 24.6516 78.5C24.6964 78.5 24.7412 78.5 24.786 78.5C24.8309 78.5 24.8757 78.5 24.9206 78.5C24.9655 78.5 25.0105 78.5 25.0554 78.5C25.1004 78.5 25.1454 78.5 25.1904 78.5C25.2355 78.5 25.2805 78.5 25.3256 78.5C25.3707 78.5 25.4158 78.5 25.461 78.5C25.5061 78.5 25.5513 78.5 25.5965 78.5C25.6417 78.5 25.687 78.5 25.7322 78.5C25.7775 78.5 25.8228 78.5 25.8681 78.5C25.9134 78.5 25.9588 78.5 26.0042 78.5C26.0496 78.5 26.095 78.5 26.1404 78.5C26.1859 78.5 26.2313 78.5 26.2768 78.5C26.3223 78.5 26.3678 78.5 26.4134 78.5C26.4589 78.5 26.5045 78.5 26.5501 78.5C26.5957 78.5 26.6414 78.5 26.687 78.5C26.7327 78.5 26.7783 78.5 26.8241 78.5C26.8698 78.5 26.9155 78.5 26.9612 78.5C27.007 78.5 27.0528 78.5 27.0986 78.5C27.1444 78.5 27.1902 78.5 27.2361 78.5C27.2819 78.5 27.3278 78.5 27.3737 78.5C27.4196 78.5 27.4655 78.5 27.5115 78.5C27.5574 78.5 27.6034 78.5 27.6494 78.5C27.6954 78.5 27.7414 78.5 27.7874 78.5C27.8334 78.5 27.8795 78.5 27.9256 78.5C27.9717 78.5 28.0178 78.5 28.0639 78.5C28.11 78.5 28.1561 78.5 28.2023 78.5C28.2485 78.5 28.2946 78.5 28.3408 78.5C28.387 78.5 28.4333 78.5 28.4795 78.5C28.5257 78.5 28.572 78.5 28.6183 78.5C28.6646 78.5 28.7108 78.5 28.7572 78.5C28.8035 78.5 28.8498 78.5 28.8962 78.5C28.9425 78.5 28.9889 78.5 29.0353 78.5C29.0817 78.5 29.1281 78.5 29.1745 78.5C29.2209 78.5 29.2673 78.5 29.3138 78.5C29.3602 78.5 29.4067 78.5 29.4532 78.5C29.4997 78.5 29.5462 78.5 29.5927 78.5C29.6392 78.5 29.6858 78.5 29.7323 78.5C29.7789 78.5 29.8254 78.5 29.872 78.5C29.9186 78.5 29.9652 78.5 30.0118 78.5C30.0584 78.5 30.105 78.5 30.1516 78.5C30.1983 78.5 30.2449 78.5 30.2916 78.5C30.3382 78.5 30.3849 78.5 30.4316 78.5C30.4783 78.5 30.525 78.5 30.5717 78.5C30.6184 78.5 30.6651 78.5 30.7118 78.5C30.7585 78.5 30.8053 78.5 30.852 78.5C30.8988 78.5 30.9456 78.5 30.9923 78.5C31.0391 78.5 31.0859 78.5 31.1327 78.5C31.1795 78.5 31.2263 78.5 31.2731 78.5C31.3199 78.5 31.3667 78.5 31.4136 78.5C31.4604 78.5 31.5072 78.5 31.5541 78.5C31.6009 78.5 31.6478 78.5 31.6947 78.5C31.7415 78.5 31.7884 78.5 31.8353 78.5C31.8822 78.5 31.9291 78.5 31.976 78.5C32.0229 78.5 32.0698 78.5 32.1167 78.5C32.1636 78.5 32.2105 78.5 32.2574 78.5C32.3043 78.5 32.3513 78.5 32.3982 78.5C32.4451 78.5 32.4921 78.5 32.539 78.5C32.586 78.5 32.6329 78.5 32.6799 78.5C32.7268 78.5 32.7738 78.5 32.8207 78.5C32.8677 78.5 32.9147 78.5 32.9616 78.5C33.0086 78.5 33.0556 78.5 33.1025 78.5C33.1495 78.5 33.1965 78.5 33.2435 78.5C33.2904 78.5 33.3374 78.5 33.3844 78.5C33.4314 78.5 33.4784 78.5 33.5254 78.5C33.5724 78.5 33.6194 78.5 33.6663 78.5C33.7133 78.5 33.7603 78.5 33.8073 78.5C33.8543 78.5 33.9013 78.5 33.9483 78.5C33.9953 78.5 34.0423 78.5 34.0893 78.5C34.1363 78.5 34.1833 78.5 34.2302 78.5C34.2772 78.5 34.3242 78.5 34.3712 78.5C34.4182 78.5 34.4652 78.5 34.5122 78.5C34.5592 78.5 34.6061 78.5 34.6531 78.5C34.7001 78.5 34.7471 78.5 34.794 78.5C34.841 78.5 34.888 78.5 34.935 78.5C34.9819 78.5 35.0289 78.5 35.0759 78.5C35.1228 78.5 35.1698 78.5 35.2167 78.5C35.2637 78.5 35.3106 78.5 35.3576 78.5C35.4045 78.5 35.4514 78.5 35.4984 78.5C35.5453 78.5 35.5922 78.5 35.6392 78.5C35.6861 78.5 35.733 78.5 35.7799 78.5C35.8268 78.5 35.8737 78.5 35.9206 78.5C35.9675 78.5 36.0144 78.5 36.0613 78.5C36.1082 78.5 36.155 78.5 36.2019 78.5C36.2488 78.5 36.2956 78.5 36.3425 78.5C36.3893 78.5 36.4362 78.5 36.483 78.5C36.5298 78.5 36.5766 78.5 36.6235 78.5C36.6703 78.5 36.7171 78.5 36.7639 78.5C36.8107 78.5 36.8574 78.5 36.9042 78.5C36.951 78.5 36.9977 78.5 37.0445 78.5C37.0913 78.5 37.138 78.5 37.1847 78.5C37.2315 78.5 37.2782 78.5 37.3249 78.5C37.3716 78.5 37.4183 78.5 37.465 78.5C37.5116 78.5 37.5583 78.5 37.605 78.5C37.6516 78.5 37.6983 78.5 37.7449 78.5C37.7915 78.5 37.8381 78.5 37.8848 78.5C37.9314 78.5 37.9779 78.5 38.0245 78.5C38.0711 78.5 38.1177 78.5 38.1642 78.5C38.2107 78.5 38.2573 78.5 38.3038 78.5C38.3503 78.5 38.3968 78.5 38.4433 78.5C38.4898 78.5 38.5362 78.5 38.5827 78.5C38.6291 78.5 38.6756 78.5 38.722 78.5C38.7684 78.5 38.8148 78.5 38.8612 78.5C38.9076 78.5 38.954 78.5 39.0003 78.5C39.0467 78.5 39.093 78.5 39.1393 78.5C39.1856 78.5 39.2319 78.5 39.2782 78.5C39.3245 78.5 39.3707 78.5 39.417 78.5C39.4632 78.5 39.5094 78.5 39.5556 78.5C39.6018 78.5 39.648 78.5 39.6941 78.5C39.7403 78.5 39.7864 78.5 39.8326 78.5C39.8787 78.5 39.9248 78.5 39.9708 78.5C40.0169 78.5 40.063 78.5 40.109 78.5C40.155 78.5 40.2011 78.5 40.247 78.5C40.293 78.5 40.339 78.5 40.3849 78.5C40.4309 78.5 40.4768 78.5 40.5227 78.5C40.5686 78.5 40.6145 78.5 40.6603 78.5C40.7062 78.5 40.752 78.5 40.7978 78.5C40.8436 78.5 40.8894 78.5 40.9351 78.5C40.9809 78.5 41.0266 78.5 41.0723 78.5C41.118 78.5 41.1637 78.5 41.2093 78.5C41.255 78.5 41.3006 78.5 41.3462 78.5C41.3918 78.5 41.4374 78.5 41.4829 78.5C41.5285 78.5 41.574 78.5 41.6195 78.5C41.665 78.5 41.7104 78.5 41.7559 78.5C41.8013 78.5 41.8467 78.5 41.8921 78.5C41.9375 78.5 41.9828 78.5 42.0282 78.5C42.0735 78.5 42.1188 78.5 42.164 78.5C42.2093 78.5 42.2546 78.5 42.2998 78.5C42.345 78.5 42.3901 78.5 42.4353 78.5C42.4804 78.5 42.5256 78.5 42.5706 78.5C42.6157 78.5 42.6608 78.5 42.7058 78.5C42.7508 78.5 42.7958 78.5 42.8408 78.5C42.8857 78.5 42.9307 78.5 42.9756 78.5C43.0205 78.5 43.0653 78.5 43.1102 78.5C43.155 78.5 43.1998 78.5 43.2446 78.5C43.2893 78.5 43.3341 78.5 43.3788 78.5C43.4235 78.5 43.4681 78.5 43.5128 78.5C43.5574 78.5 43.602 78.5 43.6466 78.5C43.6911 78.5 43.7356 78.5 43.7801 78.5C43.8246 78.5 43.8691 78.5 43.9135 78.5C43.9579 78.5 44.0023 78.5 44.0467 78.5C44.091 78.5 44.1353 78.5 44.1796 78.5C44.2239 78.5 44.2681 78.5 44.3123 78.5C44.3565 78.5 44.4007 78.5 44.4448 78.5C44.489 78.5 44.533 78.5 44.5771 78.5C44.6211 78.5 44.6652 78.5 44.7091 78.5C44.7531 78.5 44.7971 78.5 44.8409 78.5C44.8848 78.5 44.9287 78.5 44.9725 78.5C45.0163 78.5 45.0601 78.5 45.1039 78.5C45.1476 78.5 45.1913 78.5 45.235 78.5C45.2786 78.5 45.3222 78.5 45.3658 78.5C45.4094 78.5 45.4529 78.5 45.4964 78.5C45.5399 78.5 45.5834 78.5 45.6268 78.5C45.6702 78.5 45.7136 78.5 45.7569 78.5C45.8002 78.5 45.8435 78.5 45.8867 78.5C45.93 78.5 45.9732 78.5 46.0163 78.5C46.0595 78.5 46.1026 78.5 46.1456 78.5C46.1887 78.5 46.2317 78.5 46.2747 78.5C46.3177 78.5 46.3606 78.5 46.4035 78.5C46.4464 78.5 46.4892 78.5 46.532 78.5C46.5748 78.5 46.6176 78.5 46.6603 78.5C46.703 78.5 46.7456 78.5 46.7883 78.5C46.8309 78.5 46.8734 78.5 46.9159 78.5C46.9585 78.5 47.0009 78.5 47.0434 78.5C47.0858 78.5 47.1282 78.5 47.1705 78.5C47.2128 78.5 47.2551 78.5 47.2973 78.5C47.3396 78.5 47.3817 78.5 47.4239 78.5C47.466 78.5 47.5081 78.5 47.5501 78.5C47.5922 78.5 47.6341 78.5 47.6761 78.5C47.718 78.5 47.7599 78.5 47.8017 78.5C47.8436 78.5 47.8854 78.5 47.9271 78.5C47.9688 78.5 48.0105 78.5 48.0521 78.5C48.0938 78.5 48.1353 78.5 48.1769 78.5C48.2184 78.5 48.2599 78.5 48.3013 78.5C48.3427 78.5 48.3841 78.5 48.4254 78.5C48.4667 78.5 48.508 78.5 48.5492 78.5C48.5904 78.5 48.6316 78.5 48.6727 78.5C48.7138 78.5 48.7548 78.5 48.7958 78.5C48.8368 78.5 48.8777 78.5 48.9186 78.5C48.9595 78.5 49.0003 78.5 49.0411 78.5C49.0819 78.5 49.1226 78.5 49.1633 78.5C49.2039 78.5 49.2445 78.5 49.2851 78.5C49.3256 78.5 49.3661 78.5 49.4066 78.5C49.447 78.5 49.4874 78.5 49.5277 78.5C49.568 78.5 49.6083 78.5 49.6485 78.5C49.6887 78.5 49.7289 78.5 49.7689 78.5C49.809 78.5 49.8491 78.5 49.889 78.5C49.929 78.5 49.9689 78.5 50.0088 78.5C50.0486 78.5 50.0884 78.5 50.1282 78.5C50.1679 78.5 50.2076 78.5 50.2472 78.5C50.2868 78.5 50.3264 78.5 50.3659 78.5C50.4053 78.5 50.4448 78.5 50.4841 78.5C50.5235 78.5 50.5628 78.5 50.6021 78.5C50.6413 78.5 50.6805 78.5 50.7196 78.5C50.7588 78.5 50.7978 78.5 50.8368 78.5C50.8758 78.5 50.9147 78.5 50.9536 78.5C50.9925 78.5 51.0313 78.5 51.07 78.5C51.1088 78.5 51.1475 78.5 51.1861 78.5C51.2247 78.5 51.2632 78.5 51.3017 78.5C51.3402 78.5 51.3786 78.5 51.417 78.5C51.4553 78.5 51.4936 78.5 51.5319 78.5C51.5701 78.5 51.6082 78.5 51.6463 78.5C51.6844 78.5 51.7224 78.5 51.7604 78.5C51.7984 78.5 51.8363 78.5 51.8741 78.5C51.9119 78.5 51.9497 78.5 51.9874 78.5C52.025 78.5 52.0627 78.5 52.1002 78.5C52.1378 78.5 52.1753 78.5 52.2127 78.5C52.2501 78.5 52.2874 78.5 52.3247 78.5C52.362 78.5 52.3992 78.5 52.4363 78.5C52.4735 78.5 52.5105 78.5 52.5475 78.5C52.5845 78.5 52.6215 78.5 52.6583 78.5C52.6952 78.5 52.732 78.5 52.7687 78.5C52.8054 78.5 52.842 78.5 52.8786 78.5C52.9152 78.5 52.9517 78.5 52.9881 78.5C53.0245 78.5 53.0609 78.5 53.0972 78.5C53.1334 78.5 53.1697 78.5 53.2058 78.5C53.2419 78.5 53.278 78.5 53.314 78.5C53.35 78.5 53.3859 78.5 53.4217 78.5C53.4576 78.5 53.4933 78.5 53.529 78.5C53.5647 78.5 53.6003 78.5 53.6359 78.5C53.6714 78.5 53.7069 78.5 53.7423 78.5C53.7776 78.5 53.813 78.5 53.8482 78.5C53.8834 78.5 53.9186 78.5 53.9537 78.5C53.9888 78.5 54.0238 78.5 54.0587 78.5C54.0936 78.5 54.1285 78.5 54.1633 78.5C54.198 78.5 54.2327 78.5 54.2674 78.5C54.302 78.5 54.3365 78.5 54.371 78.5C54.4054 78.5 54.4398 78.5 54.4741 78.5C54.5084 78.5 54.5426 78.5 54.5768 78.5C54.6109 78.5 54.645 78.5 54.679 78.5C54.713 78.5 54.7469 78.5 54.7807 78.5C54.8145 78.5 54.8483 78.5 54.8819 78.5C54.9156 78.5 54.9492 78.5 54.9827 78.5C55.0162 78.5 55.0496 78.5 55.0829 78.5C55.1163 78.5 55.1495 78.5 55.1827 78.5C55.2158 78.5 55.2489 78.5 55.2819 78.5C55.3149 78.5 55.3479 78.5 55.3807 78.5C55.4135 78.5 55.4463 78.5 55.479 78.5C55.5116 78.5 55.5442 78.5 55.5767 78.5C55.6092 78.5 55.6416 78.5 55.674 78.5C55.7063 78.5 55.7385 78.5 55.7707 78.5C55.8028 78.5 55.8349 78.5 55.8669 78.5C55.8989 78.5 55.9308 78.5 55.9626 78.5C55.9944 78.5 56.0261 78.5 56.0578 78.5C56.0894 78.5 56.121 78.5 56.1524 78.5C56.1839 78.5 56.2153 78.5 56.2466 78.5C56.2779 78.5 56.3091 78.5 56.3402 78.5C56.3713 78.5 56.4023 78.5 56.4332 78.5C56.4642 78.5 56.495 78.5 56.5258 78.5C56.5565 78.5 56.5872 78.5 56.6178 78.5C56.6483 78.5 56.6788 78.5 56.7092 78.5C56.7396 78.5 56.7699 78.5 56.8001 78.5C56.8303 78.5 56.8605 78.5 56.8905 78.5C56.9205 78.5 56.9505 78.5 56.9803 78.5C57.0102 78.5 57.0399 78.5 57.0696 78.5C57.0992 78.5 57.1288 78.5 57.1583 78.5C57.1878 78.5 57.2171 78.5 57.2464 78.5C57.2757 78.5 57.3049 78.5 57.334 78.5C57.3631 78.5 57.3921 78.5 57.421 78.5C57.4499 78.5 57.4788 78.5 57.5075 78.5C57.5362 78.5 57.5648 78.5 57.5934 78.5C57.6219 78.5 57.6503 78.5 57.6787 78.5C57.707 78.5 57.7352 78.5 57.7634 78.5C57.7915 78.5 57.8196 78.5 57.8475 78.5C57.8755 78.5 57.9034 78.5 57.9311 78.5C57.9589 78.5 57.9865 78.5 58.0141 78.5C58.0417 78.5 58.0691 78.5 58.0965 78.5C58.1238 78.5 58.1511 78.5 58.1783 78.5C58.2055 78.5 58.2325 78.5 58.2595 78.5C58.2865 78.5 58.3133 78.5 58.3401 78.5C58.3669 78.5 58.3935 78.5 58.4201 78.5C58.4467 78.5 58.4731 78.5 58.4995 78.5V68.5C58.4731 68.5 58.4467 68.5 58.4201 68.5C58.3935 68.5 58.3669 68.5 58.3401 68.5C58.3133 68.5 58.2865 68.5 58.2595 68.5C58.2325 68.5 58.2055 68.5 58.1783 68.5C58.1511 68.5 58.1238 68.5 58.0965 68.5C58.0691 68.5 58.0417 68.5 58.0141 68.5C57.9865 68.5 57.9589 68.5 57.9311 68.5C57.9034 68.5 57.8755 68.5 57.8475 68.5C57.8196 68.5 57.7915 68.5 57.7634 68.5C57.7352 68.5 57.707 68.5 57.6787 68.5C57.6503 68.5 57.6219 68.5 57.5934 68.5C57.5648 68.5 57.5362 68.5 57.5075 68.5C57.4788 68.5 57.4499 68.5 57.421 68.5C57.3921 68.5 57.3631 68.5 57.334 68.5C57.3049 68.5 57.2757 68.5 57.2464 68.5C57.2171 68.5 57.1878 68.5 57.1583 68.5C57.1288 68.5 57.0992 68.5 57.0696 68.5C57.0399 68.5 57.0102 68.5 56.9803 68.5C56.9505 68.5 56.9205 68.5 56.8905 68.5C56.8605 68.5 56.8303 68.5 56.8001 68.5C56.7699 68.5 56.7396 68.5 56.7092 68.5C56.6788 68.5 56.6483 68.5 56.6178 68.5C56.5872 68.5 56.5565 68.5 56.5258 68.5C56.495 68.5 56.4642 68.5 56.4332 68.5C56.4023 68.5 56.3713 68.5 56.3402 68.5C56.3091 68.5 56.2779 68.5 56.2466 68.5C56.2153 68.5 56.1839 68.5 56.1524 68.5C56.121 68.5 56.0894 68.5 56.0578 68.5C56.0261 68.5 55.9944 68.5 55.9626 68.5C55.9308 68.5 55.8989 68.5 55.8669 68.5C55.8349 68.5 55.8028 68.5 55.7707 68.5C55.7385 68.5 55.7063 68.5 55.674 68.5C55.6416 68.5 55.6092 68.5 55.5767 68.5C55.5442 68.5 55.5116 68.5 55.479 68.5C55.4463 68.5 55.4135 68.5 55.3807 68.5C55.3479 68.5 55.3149 68.5 55.2819 68.5C55.2489 68.5 55.2158 68.5 55.1827 68.5C55.1495 68.5 55.1163 68.5 55.0829 68.5C55.0496 68.5 55.0162 68.5 54.9827 68.5C54.9492 68.5 54.9156 68.5 54.8819 68.5C54.8483 68.5 54.8145 68.5 54.7807 68.5C54.7469 68.5 54.713 68.5 54.679 68.5C54.645 68.5 54.6109 68.5 54.5768 68.5C54.5426 68.5 54.5084 68.5 54.4741 68.5C54.4398 68.5 54.4054 68.5 54.371 68.5C54.3365 68.5 54.302 68.5 54.2674 68.5C54.2327 68.5 54.198 68.5 54.1633 68.5C54.1285 68.5 54.0936 68.5 54.0587 68.5C54.0238 68.5 53.9888 68.5 53.9537 68.5C53.9186 68.5 53.8834 68.5 53.8482 68.5C53.813 68.5 53.7776 68.5 53.7423 68.5C53.7069 68.5 53.6714 68.5 53.6359 68.5C53.6003 68.5 53.5647 68.5 53.529 68.5C53.4933 68.5 53.4576 68.5 53.4217 68.5C53.3859 68.5 53.35 68.5 53.314 68.5C53.278 68.5 53.2419 68.5 53.2058 68.5C53.1697 68.5 53.1334 68.5 53.0972 68.5C53.0609 68.5 53.0245 68.5 52.9881 68.5C52.9517 68.5 52.9152 68.5 52.8786 68.5C52.842 68.5 52.8054 68.5 52.7687 68.5C52.732 68.5 52.6952 68.5 52.6583 68.5C52.6215 68.5 52.5845 68.5 52.5475 68.5C52.5105 68.5 52.4735 68.5 52.4363 68.5C52.3992 68.5 52.362 68.5 52.3247 68.5C52.2874 68.5 52.2501 68.5 52.2127 68.5C52.1753 68.5 52.1378 68.5 52.1002 68.5C52.0627 68.5 52.025 68.5 51.9874 68.5C51.9497 68.5 51.9119 68.5 51.8741 68.5C51.8363 68.5 51.7984 68.5 51.7604 68.5C51.7224 68.5 51.6844 68.5 51.6463 68.5C51.6082 68.5 51.5701 68.5 51.5319 68.5C51.4936 68.5 51.4553 68.5 51.417 68.5C51.3786 68.5 51.3402 68.5 51.3017 68.5C51.2632 68.5 51.2247 68.5 51.1861 68.5C51.1475 68.5 51.1088 68.5 51.07 68.5C51.0313 68.5 50.9925 68.5 50.9536 68.5C50.9147 68.5 50.8758 68.5 50.8368 68.5C50.7978 68.5 50.7588 68.5 50.7196 68.5C50.6805 68.5 50.6413 68.5 50.6021 68.5C50.5628 68.5 50.5235 68.5 50.4841 68.5C50.4448 68.5 50.4053 68.5 50.3659 68.5C50.3264 68.5 50.2868 68.5 50.2472 68.5C50.2076 68.5 50.1679 68.5 50.1282 68.5C50.0884 68.5 50.0486 68.5 50.0088 68.5C49.9689 68.5 49.929 68.5 49.889 68.5C49.8491 68.5 49.809 68.5 49.7689 68.5C49.7289 68.5 49.6887 68.5 49.6485 68.5C49.6083 68.5 49.568 68.5 49.5277 68.5C49.4874 68.5 49.447 68.5 49.4066 68.5C49.3661 68.5 49.3256 68.5 49.2851 68.5C49.2445 68.5 49.2039 68.5 49.1633 68.5C49.1226 68.5 49.0819 68.5 49.0411 68.5C49.0003 68.5 48.9595 68.5 48.9186 68.5C48.8777 68.5 48.8368 68.5 48.7958 68.5C48.7548 68.5 48.7138 68.5 48.6727 68.5C48.6316 68.5 48.5904 68.5 48.5492 68.5C48.508 68.5 48.4667 68.5 48.4254 68.5C48.3841 68.5 48.3427 68.5 48.3013 68.5C48.2599 68.5 48.2184 68.5 48.1769 68.5C48.1353 68.5 48.0938 68.5 48.0521 68.5C48.0105 68.5 47.9688 68.5 47.9271 68.5C47.8854 68.5 47.8436 68.5 47.8017 68.5C47.7599 68.5 47.718 68.5 47.6761 68.5C47.6341 68.5 47.5922 68.5 47.5501 68.5C47.5081 68.5 47.466 68.5 47.4239 68.5C47.3817 68.5 47.3396 68.5 47.2973 68.5C47.2551 68.5 47.2128 68.5 47.1705 68.5C47.1282 68.5 47.0858 68.5 47.0434 68.5C47.0009 68.5 46.9585 68.5 46.9159 68.5C46.8734 68.5 46.8309 68.5 46.7883 68.5C46.7456 68.5 46.703 68.5 46.6603 68.5C46.6176 68.5 46.5748 68.5 46.532 68.5C46.4892 68.5 46.4464 68.5 46.4035 68.5C46.3606 68.5 46.3177 68.5 46.2747 68.5C46.2317 68.5 46.1887 68.5 46.1456 68.5C46.1026 68.5 46.0595 68.5 46.0163 68.5C45.9732 68.5 45.93 68.5 45.8867 68.5C45.8435 68.5 45.8002 68.5 45.7569 68.5C45.7136 68.5 45.6702 68.5 45.6268 68.5C45.5834 68.5 45.5399 68.5 45.4964 68.5C45.4529 68.5 45.4094 68.5 45.3658 68.5C45.3222 68.5 45.2786 68.5 45.235 68.5C45.1913 68.5 45.1476 68.5 45.1039 68.5C45.0601 68.5 45.0163 68.5 44.9725 68.5C44.9287 68.5 44.8848 68.5 44.8409 68.5C44.7971 68.5 44.7531 68.5 44.7091 68.5C44.6652 68.5 44.6211 68.5 44.5771 68.5C44.533 68.5 44.489 68.5 44.4448 68.5C44.4007 68.5 44.3565 68.5 44.3123 68.5C44.2681 68.5 44.2239 68.5 44.1796 68.5C44.1353 68.5 44.091 68.5 44.0467 68.5C44.0023 68.5 43.9579 68.5 43.9135 68.5C43.8691 68.5 43.8246 68.5 43.7801 68.5C43.7356 68.5 43.6911 68.5 43.6466 68.5C43.602 68.5 43.5574 68.5 43.5128 68.5C43.4681 68.5 43.4235 68.5 43.3788 68.5C43.3341 68.5 43.2893 68.5 43.2446 68.5C43.1998 68.5 43.155 68.5 43.1102 68.5C43.0653 68.5 43.0205 68.5 42.9756 68.5C42.9307 68.5 42.8857 68.5 42.8408 68.5C42.7958 68.5 42.7508 68.5 42.7058 68.5C42.6608 68.5 42.6157 68.5 42.5706 68.5C42.5256 68.5 42.4804 68.5 42.4353 68.5C42.3901 68.5 42.345 68.5 42.2998 68.5C42.2546 68.5 42.2093 68.5 42.164 68.5C42.1188 68.5 42.0735 68.5 42.0282 68.5C41.9828 68.5 41.9375 68.5 41.8921 68.5C41.8467 68.5 41.8013 68.5 41.7559 68.5C41.7104 68.5 41.665 68.5 41.6195 68.5C41.574 68.5 41.5285 68.5 41.4829 68.5C41.4374 68.5 41.3918 68.5 41.3462 68.5C41.3006 68.5 41.255 68.5 41.2093 68.5C41.1637 68.5 41.118 68.5 41.0723 68.5C41.0266 68.5 40.9809 68.5 40.9351 68.5C40.8894 68.5 40.8436 68.5 40.7978 68.5C40.752 68.5 40.7062 68.5 40.6603 68.5C40.6145 68.5 40.5686 68.5 40.5227 68.5C40.4768 68.5 40.4309 68.5 40.3849 68.5C40.339 68.5 40.293 68.5 40.247 68.5C40.2011 68.5 40.155 68.5 40.109 68.5C40.063 68.5 40.0169 68.5 39.9708 68.5C39.9248 68.5 39.8787 68.5 39.8326 68.5C39.7864 68.5 39.7403 68.5 39.6941 68.5C39.648 68.5 39.6018 68.5 39.5556 68.5C39.5094 68.5 39.4632 68.5 39.417 68.5C39.3707 68.5 39.3245 68.5 39.2782 68.5C39.2319 68.5 39.1856 68.5 39.1393 68.5C39.093 68.5 39.0467 68.5 39.0003 68.5C38.954 68.5 38.9076 68.5 38.8612 68.5C38.8148 68.5 38.7684 68.5 38.722 68.5C38.6756 68.5 38.6291 68.5 38.5827 68.5C38.5362 68.5 38.4898 68.5 38.4433 68.5C38.3968 68.5 38.3503 68.5 38.3038 68.5C38.2573 68.5 38.2107 68.5 38.1642 68.5C38.1177 68.5 38.0711 68.5 38.0245 68.5C37.9779 68.5 37.9314 68.5 37.8848 68.5C37.8381 68.5 37.7915 68.5 37.7449 68.5C37.6983 68.5 37.6516 68.5 37.605 68.5C37.5583 68.5 37.5116 68.5 37.465 68.5C37.4183 68.5 37.3716 68.5 37.3249 68.5C37.2782 68.5 37.2315 68.5 37.1847 68.5C37.138 68.5 37.0913 68.5 37.0445 68.5C36.9977 68.5 36.951 68.5 36.9042 68.5C36.8574 68.5 36.8107 68.5 36.7639 68.5C36.7171 68.5 36.6703 68.5 36.6235 68.5C36.5766 68.5 36.5298 68.5 36.483 68.5C36.4362 68.5 36.3893 68.5 36.3425 68.5C36.2956 68.5 36.2488 68.5 36.2019 68.5C36.155 68.5 36.1082 68.5 36.0613 68.5C36.0144 68.5 35.9675 68.5 35.9206 68.5C35.8737 68.5 35.8268 68.5 35.7799 68.5C35.733 68.5 35.6861 68.5 35.6392 68.5C35.5922 68.5 35.5453 68.5 35.4984 68.5C35.4514 68.5 35.4045 68.5 35.3576 68.5C35.3106 68.5 35.2637 68.5 35.2167 68.5C35.1698 68.5 35.1228 68.5 35.0759 68.5C35.0289 68.5 34.9819 68.5 34.935 68.5C34.888 68.5 34.841 68.5 34.794 68.5C34.7471 68.5 34.7001 68.5 34.6531 68.5C34.6061 68.5 34.5592 68.5 34.5122 68.5C34.4652 68.5 34.4182 68.5 34.3712 68.5C34.3242 68.5 34.2772 68.5 34.2302 68.5C34.1833 68.5 34.1363 68.5 34.0893 68.5C34.0423 68.5 33.9953 68.5 33.9483 68.5C33.9013 68.5 33.8543 68.5 33.8073 68.5C33.7603 68.5 33.7133 68.5 33.6663 68.5C33.6194 68.5 33.5724 68.5 33.5254 68.5C33.4784 68.5 33.4314 68.5 33.3844 68.5C33.3374 68.5 33.2904 68.5 33.2435 68.5C33.1965 68.5 33.1495 68.5 33.1025 68.5C33.0556 68.5 33.0086 68.5 32.9616 68.5C32.9147 68.5 32.8677 68.5 32.8207 68.5C32.7738 68.5 32.7268 68.5 32.6799 68.5C32.6329 68.5 32.586 68.5 32.539 68.5C32.4921 68.5 32.4451 68.5 32.3982 68.5C32.3513 68.5 32.3043 68.5 32.2574 68.5C32.2105 68.5 32.1636 68.5 32.1167 68.5C32.0698 68.5 32.0229 68.5 31.976 68.5C31.9291 68.5 31.8822 68.5 31.8353 68.5C31.7884 68.5 31.7415 68.5 31.6947 68.5C31.6478 68.5 31.6009 68.5 31.5541 68.5C31.5072 68.5 31.4604 68.5 31.4136 68.5C31.3667 68.5 31.3199 68.5 31.2731 68.5C31.2263 68.5 31.1795 68.5 31.1327 68.5C31.0859 68.5 31.0391 68.5 30.9923 68.5C30.9456 68.5 30.8988 68.5 30.852 68.5C30.8053 68.5 30.7585 68.5 30.7118 68.5C30.6651 68.5 30.6184 68.5 30.5717 68.5C30.525 68.5 30.4783 68.5 30.4316 68.5C30.3849 68.5 30.3382 68.5 30.2916 68.5C30.2449 68.5 30.1983 68.5 30.1516 68.5C30.105 68.5 30.0584 68.5 30.0118 68.5C29.9652 68.5 29.9186 68.5 29.872 68.5C29.8254 68.5 29.7789 68.5 29.7323 68.5C29.6858 68.5 29.6392 68.5 29.5927 68.5C29.5462 68.5 29.4997 68.5 29.4532 68.5C29.4067 68.5 29.3602 68.5 29.3138 68.5C29.2673 68.5 29.2209 68.5 29.1745 68.5C29.1281 68.5 29.0817 68.5 29.0353 68.5C28.9889 68.5 28.9425 68.5 28.8962 68.5C28.8498 68.5 28.8035 68.5 28.7572 68.5C28.7108 68.5 28.6646 68.5 28.6183 68.5C28.572 68.5 28.5257 68.5 28.4795 68.5C28.4333 68.5 28.387 68.5 28.3408 68.5C28.2946 68.5 28.2485 68.5 28.2023 68.5C28.1561 68.5 28.11 68.5 28.0639 68.5C28.0178 68.5 27.9717 68.5 27.9256 68.5C27.8795 68.5 27.8334 68.5 27.7874 68.5C27.7414 68.5 27.6954 68.5 27.6494 68.5C27.6034 68.5 27.5574 68.5 27.5115 68.5C27.4655 68.5 27.4196 68.5 27.3737 68.5C27.3278 68.5 27.2819 68.5 27.2361 68.5C27.1902 68.5 27.1444 68.5 27.0986 68.5C27.0528 68.5 27.007 68.5 26.9612 68.5C26.9155 68.5 26.8698 68.5 26.8241 68.5C26.7783 68.5 26.7327 68.5 26.687 68.5C26.6414 68.5 26.5957 68.5 26.5501 68.5C26.5045 68.5 26.4589 68.5 26.4134 68.5C26.3678 68.5 26.3223 68.5 26.2768 68.5C26.2313 68.5 26.1859 68.5 26.1404 68.5C26.095 68.5 26.0496 68.5 26.0042 68.5C25.9588 68.5 25.9134 68.5 25.8681 68.5C25.8228 68.5 25.7775 68.5 25.7322 68.5C25.687 68.5 25.6417 68.5 25.5965 68.5C25.5513 68.5 25.5061 68.5 25.461 68.5C25.4158 68.5 25.3707 68.5 25.3256 68.5C25.2805 68.5 25.2355 68.5 25.1904 68.5C25.1454 68.5 25.1004 68.5 25.0554 68.5C25.0105 68.5 24.9655 68.5 24.9206 68.5C24.8757 68.5 24.8309 68.5 24.786 68.5C24.7412 68.5 24.6964 68.5 24.6516 68.5C24.6069 68.5 24.5621 68.5 24.5174 68.5C24.4727 68.5 24.428 68.5 24.3834 68.5C24.3388 68.5 24.2942 68.5 24.2496 68.5C24.205 68.5 24.1605 68.5 24.116 68.5C24.0715 68.5 24.027 68.5 23.9826 68.5C23.9382 68.5 23.8938 68.5 23.8494 68.5C23.8051 68.5 23.7608 68.5 23.7165 68.5C23.6722 68.5 23.628 68.5 23.5838 68.5C23.5395 68.5 23.4954 68.5 23.4512 68.5C23.4071 68.5 23.363 68.5 23.319 68.5C23.2749 68.5 23.2309 68.5 23.1869 68.5C23.1429 68.5 23.099 68.5 23.0551 68.5C23.0112 68.5 22.9673 68.5 22.9235 68.5C22.8797 68.5 22.8359 68.5 22.7921 68.5C22.7484 68.5 22.7047 68.5 22.661 68.5C22.6174 68.5 22.5737 68.5 22.5302 68.5C22.4866 68.5 22.443 68.5 22.3995 68.5C22.356 68.5 22.3126 68.5 22.2692 68.5C22.2257 68.5 22.1824 68.5 22.139 68.5C22.0957 68.5 22.0524 68.5 22.0092 68.5C21.9659 68.5 21.9227 68.5 21.8796 68.5C21.8364 68.5 21.7933 68.5 21.7502 68.5C21.7072 68.5 21.6641 68.5 21.6212 68.5C21.5782 68.5 21.5352 68.5 21.4923 68.5C21.4495 68.5 21.4066 68.5 21.3638 68.5C21.321 68.5 21.2782 68.5 21.2355 68.5C21.1928 68.5 21.1502 68.5 21.1075 68.5C21.0649 68.5 21.0224 68.5 20.9798 68.5C20.9373 68.5 20.8948 68.5 20.8524 68.5C20.81 68.5 20.7676 68.5 20.7253 68.5C20.6829 68.5 20.6406 68.5 20.5984 68.5C20.5562 68.5 20.514 68.5 20.4718 68.5C20.4297 68.5 20.3876 68.5 20.3456 68.5C20.3035 68.5 20.2615 68.5 20.2196 68.5C20.1777 68.5 20.1358 68.5 20.0939 68.5C20.0521 68.5 20.0103 68.5 19.9685 68.5C19.9268 68.5 19.8851 68.5 19.8435 68.5C19.8018 68.5 19.7603 68.5 19.7187 68.5C19.6772 68.5 19.6357 68.5 19.5943 68.5C19.5529 68.5 19.5115 68.5 19.4702 68.5C19.4288 68.5 19.3876 68.5 19.3463 68.5C19.3051 68.5 19.264 68.5 19.2229 68.5C19.1818 68.5 19.1407 68.5 19.0997 68.5C19.0587 68.5 19.0177 68.5 18.9769 68.5C18.936 68.5 18.8951 68.5 18.8543 68.5C18.8136 68.5 18.7728 68.5 18.7322 68.5C18.6915 68.5 18.6509 68.5 18.6103 68.5C18.5698 68.5 18.5293 68.5 18.4888 68.5C18.4484 68.5 18.408 68.5 18.3677 68.5C18.3273 68.5 18.2871 68.5 18.2469 68.5C18.2066 68.5 18.1665 68.5 18.1264 68.5C18.0863 68.5 18.0463 68.5 18.0063 68.5C17.9663 68.5 17.9264 68.5 17.8865 68.5C17.8467 68.5 17.8069 68.5 17.7671 68.5C17.7274 68.5 17.6877 68.5 17.6481 68.5C17.6084 68.5 17.5689 68.5 17.5294 68.5C17.4899 68.5 17.4504 68.5 17.4111 68.5C17.3717 68.5 17.3324 68.5 17.2931 68.5C17.2539 68.5 17.2147 68.5 17.1755 68.5C17.1364 68.5 17.0973 68.5 17.0583 68.5C17.0193 68.5 16.9804 68.5 16.9415 68.5C16.9026 68.5 16.8638 68.5 16.8251 68.5C16.7863 68.5 16.7476 68.5 16.709 68.5C16.6704 68.5 16.6318 68.5 16.5933 68.5C16.5548 68.5 16.5164 68.5 16.478 68.5C16.4397 68.5 16.4014 68.5 16.3631 68.5C16.3249 68.5 16.2868 68.5 16.2487 68.5C16.2106 68.5 16.1725 68.5 16.1346 68.5C16.0966 68.5 16.0587 68.5 16.0209 68.5C15.983 68.5 15.9453 68.5 15.9076 68.5C15.8699 68.5 15.8322 68.5 15.7947 68.5C15.7571 68.5 15.7196 68.5 15.6822 68.5C15.6448 68.5 15.6074 68.5 15.5701 68.5C15.5328 68.5 15.4956 68.5 15.4585 68.5C15.4213 68.5 15.3843 68.5 15.3473 68.5C15.3102 68.5 15.2733 68.5 15.2364 68.5C15.1996 68.5 15.1628 68.5 15.1261 68.5C15.0893 68.5 15.0527 68.5 15.0161 68.5C14.9795 68.5 14.943 68.5 14.9066 68.5C14.8701 68.5 14.8338 68.5 14.7975 68.5C14.7612 68.5 14.725 68.5 14.6888 68.5C14.6527 68.5 14.6166 68.5 14.5806 68.5C14.5446 68.5 14.5087 68.5 14.4729 68.5C14.437 68.5 14.4012 68.5 14.3655 68.5C14.3298 68.5 14.2942 68.5 14.2587 68.5C14.2231 68.5 14.1876 68.5 14.1522 68.5C14.1168 68.5 14.0815 68.5 14.0463 68.5C14.011 68.5 13.9759 68.5 13.9408 68.5C13.9057 68.5 13.8707 68.5 13.8357 68.5C13.8008 68.5 13.7659 68.5 13.7311 68.5C13.6963 68.5 13.6616 68.5 13.627 68.5C13.5924 68.5 13.5578 68.5 13.5234 68.5C13.4889 68.5 13.4545 68.5 13.4202 68.5C13.3859 68.5 13.3516 68.5 13.3175 68.5C13.2833 68.5 13.2492 68.5 13.2153 68.5C13.1813 68.5 13.1473 68.5 13.1135 68.5C13.0797 68.5 13.0459 68.5 13.0123 68.5C12.9786 68.5 12.945 68.5 12.9115 68.5C12.878 68.5 12.8445 68.5 12.8112 68.5C12.7779 68.5 12.7446 68.5 12.7114 68.5C12.6782 68.5 12.6451 68.5 12.6121 68.5C12.5791 68.5 12.5462 68.5 12.5133 68.5C12.4805 68.5 12.4477 68.5 12.415 68.5C12.3824 68.5 12.3498 68.5 12.3173 68.5C12.2848 68.5 12.2523 68.5 12.22 68.5C12.1877 68.5 12.1554 68.5 12.1232 68.5C12.0911 68.5 12.059 68.5 12.027 68.5C11.995 68.5 11.9631 68.5 11.9312 68.5C11.8994 68.5 11.8677 68.5 11.836 68.5C11.8044 68.5 11.7728 68.5 11.7413 68.5C11.7099 68.5 11.6785 68.5 11.6472 68.5C11.6159 68.5 11.5847 68.5 11.5536 68.5C11.5224 68.5 11.4914 68.5 11.4604 68.5C11.4295 68.5 11.3986 68.5 11.3679 68.5C11.3371 68.5 11.3064 68.5 11.2759 68.5C11.2453 68.5 11.2148 68.5 11.1844 68.5C11.154 68.5 11.1236 68.5 11.0934 68.5C11.0632 68.5 11.0331 68.5 11.003 68.5C10.973 68.5 10.943 68.5 10.9132 68.5C10.8833 68.5 10.8536 68.5 10.8239 68.5C10.7942 68.5 10.7646 68.5 10.7351 68.5C10.7057 68.5 10.6763 68.5 10.647 68.5C10.6177 68.5 10.5885 68.5 10.5594 68.5C10.5302 68.5 10.5012 68.5 10.4723 68.5C10.4434 68.5 10.4145 68.5 10.3858 68.5C10.3571 68.5 10.3284 68.5 10.2999 68.5C10.2714 68.5 10.2429 68.5 10.2146 68.5C10.1862 68.5 10.158 68.5 10.1298 68.5C10.1016 68.5 10.0736 68.5 10.0456 68.5C10.0176 68.5 9.98978 68.5 9.96201 68.5C9.93424 68.5 9.90656 68.5 9.87899 68.5C9.85142 68.5 9.82394 68.5 9.79656 68.5C9.76918 68.5 9.74191 68.5 9.71473 68.5C9.68755 68.5 9.66047 68.5 9.63348 68.5C9.6065 68.5 9.57962 68.5 9.55284 68.5C9.52606 68.5 9.49938 68.5 9.4728 68.5C9.44621 68.5 9.41973 68.5 9.39335 68.5C9.36698 68.5 9.3407 68.5 9.31452 68.5C9.28834 68.5 9.26227 68.5 9.2363 68.5C9.21032 68.5 9.18445 68.5 9.15868 68.5C9.13291 68.5 9.10725 68.5 9.08168 68.5C9.05612 68.5 9.03066 68.5 9.00531 68.5C8.97995 68.5 8.9547 68.5 8.92955 68.5C8.9044 68.5 8.87935 68.5 8.85441 68.5C8.82947 68.5 8.80464 68.5 8.77991 68.5C8.75518 68.5 8.73055 68.5 8.70603 68.5C8.68151 68.5 8.6571 68.5 8.63279 68.5C8.60848 68.5 8.58428 68.5 8.56018 68.5C8.53608 68.5 8.51209 68.5 8.48821 68.5C8.46433 68.5 8.44055 68.5 8.41689 68.5C8.39322 68.5 8.36966 68.5 8.3462 68.5C8.32275 68.5 8.29941 68.5 8.27617 68.5C8.25294 68.5 8.22981 68.5 8.20679 68.5C8.18377 68.5 8.16086 68.5 8.13806 68.5C8.11526 68.5 8.09257 68.5 8.06999 68.5C8.04741 68.5 8.02494 68.5 8.00258 68.5C7.98022 68.5 7.95797 68.5 7.93583 68.5C7.91369 68.5 7.89166 68.5 7.86975 68.5C7.84783 68.5 7.82602 68.5 7.80433 68.5C7.78264 68.5 7.76106 68.5 7.73959 68.5C7.71812 68.5 7.69676 68.5 7.67552 68.5C7.65428 68.5 7.63315 68.5 7.61213 68.5C7.59112 68.5 7.57021 68.5 7.54942 68.5C7.52863 68.5 7.50796 68.5 7.4874 68.5C7.46684 68.5 7.44639 68.5 7.42606 68.5C7.40573 68.5 7.38551 68.5 7.36541 68.5C7.34531 68.5 7.32532 68.5 7.30545 68.5C7.28558 68.5 7.26583 68.5 7.24619 68.5C7.22655 68.5 7.20703 68.5 7.18763 68.5C7.16822 68.5 7.14894 68.5 7.12977 68.5C7.1106 68.5 7.09154 68.5 7.07261 68.5C7.05368 68.5 7.03486 68.5 7.01616 68.5C6.99746 68.5 6.97888 68.5 6.96042 68.5C6.94196 68.5 6.92362 68.5 6.9054 68.5C6.88717 68.5 6.86907 68.5 6.85109 68.5C6.8331 68.5 6.81524 68.5 6.7975 68.5C6.77975 68.5 6.76213 68.5 6.74463 68.5C6.72713 68.5 6.70975 68.5 6.69249 68.5C6.67523 68.5 6.65809 68.5 6.64107 68.5C6.62406 68.5 6.60716 68.5 6.59039 68.5C6.57362 68.5 6.55697 68.5 6.54044 68.5C6.52391 68.5 6.50751 68.5 6.49123 68.5C6.47495 68.5 6.45879 68.5 6.44276 68.5C6.42672 68.5 6.41081 68.5 6.39503 68.5C6.37924 68.5 6.36358 68.5 6.34805 68.5C6.33251 68.5 6.3171 68.5 6.30181 68.5C6.28653 68.5 6.27137 68.5 6.25633 68.5C6.2413 68.5 6.22639 68.5 6.21161 68.5C6.19682 68.5 6.18217 68.5 6.16764 68.5C6.15311 68.5 6.13871 68.5 6.12443 68.5C6.11016 68.5 6.09601 68.5 6.08199 68.5C6.06797 68.5 6.05408 68.5 6.04031 68.5C6.02655 68.5 6.01291 68.5 5.9994 68.5C5.9859 68.5 5.97252 68.5 5.95927 68.5C5.94602 68.5 5.9329 68.5 5.91991 68.5C5.90692 68.5 5.89406 68.5 5.88133 68.5C5.8686 68.5 5.85601 68.5 5.84354 68.5C5.83107 68.5 5.81873 68.5 5.80652 68.5C5.79432 68.5 5.78224 68.5 5.7703 68.5C5.75836 68.5 5.74654 68.5 5.73486 68.5C5.72319 68.5 5.71164 68.5 5.70022 68.5C5.68881 68.5 5.67753 68.5 5.66638 68.5C5.65523 68.5 5.64422 68.5 5.63334 68.5C5.62245 68.5 5.61171 68.5 5.60109 68.5C5.59048 68.5 5.58 68.5 5.56966 68.5C5.55931 68.5 5.5491 68.5 5.53903 68.5C5.52896 68.5 5.51902 68.5 5.50921 68.5C5.49941 68.5 5.48974 68.5 5.48021 68.5C5.47068 68.5 5.46128 68.5 5.45203 68.5C5.44277 68.5 5.43365 68.5 5.42466 68.5C5.41568 68.5 5.40683 68.5 5.39812 68.5C5.38941 68.5 5.38084 68.5 5.37241 68.5C5.36397 68.5 5.35568 68.5 5.34752 68.5C5.33937 68.5 5.33135 68.5 5.32347 68.5C5.31559 68.5 5.30785 68.5 5.30025 68.5C5.29265 68.5 5.28519 68.5 5.27787 68.5C5.27055 68.5 5.26337 68.5 5.25633 68.5C5.2493 68.5 5.2424 68.5 5.23564 68.5C5.22888 68.5 5.22227 68.5 5.21579 68.5C5.20932 68.5 5.20299 68.5 5.1968 68.5C5.19061 68.5 5.18456 68.5 5.17865 68.5C5.17275 68.5 5.16699 68.5 5.16137 68.5C5.15575 68.5 5.15027 68.5 5.14494 68.5C5.1396 68.5 5.13442 68.5 5.12937 68.5C5.12433 68.5 5.11943 68.5 5.11467 68.5C5.10991 68.5 5.1053 68.5 5.10084 68.5C5.09637 68.5 5.09205 68.5 5.08787 68.5C5.0837 68.5 5.07967 68.5 5.07579 68.5C5.0719 68.5 5.06816 68.5 5.06457 68.5C5.06098 68.5 5.05754 68.5 5.05424 68.5C5.05094 68.5 5.04779 68.5 5.04479 68.5C5.04179 68.5 5.03894 68.5 5.03623 68.5C5.03352 68.5 5.03096 68.5 5.02855 68.5C5.02615 68.5 5.02388 68.5 5.02177 68.5C5.01966 68.5 5.0177 68.5 5.01588 68.5C5.01407 68.5 5.01241 68.5 5.01089 68.5C5.00938 68.5 5.00802 68.5 5.0068 68.5C5.00559 68.5 5.00453 68.5 5.00362 68.5C5.00271 68.5 5.00195 68.5 5.00134 68.5C5.00073 68.5 5.00027 68.5 4.99997 68.5C4.99966 68.5 4.99951 68.5 4.99951 73.5ZM58.4995 78.5C68.8218 78.5 83.9995 88.8258 83.9995 112.5L93.9995 112.5C93.9995 84.1742 75.1773 68.5 58.4995 68.5V78.5ZM83.9995 112.5C83.9995 120.626 87.5179 126.806 92.558 131.273C97.4529 135.612 103.734 138.317 109.583 140.045C115.486 141.789 121.321 142.645 125.634 143.07C127.803 143.283 129.616 143.39 130.898 143.445C131.54 143.472 132.05 143.485 132.407 143.493C132.586 143.496 132.726 143.498 132.826 143.499C132.875 143.499 132.915 143.5 132.944 143.5C132.959 143.5 132.971 143.5 132.98 143.5C132.985 143.5 132.988 143.5 132.992 143.5C132.993 143.5 132.995 143.5 132.996 143.5C132.998 143.5 133 143.5 133 138.5C132.999 133.5 133.001 133.5 133.002 133.5C133.002 133.5 133.003 133.5 133.003 133.5C133.004 133.5 133.004 133.5 133.003 133.5C133.002 133.5 132.998 133.5 132.991 133.5C132.978 133.5 132.954 133.5 132.921 133.499C132.854 133.499 132.747 133.497 132.604 133.494C132.316 133.489 131.881 133.477 131.32 133.453C130.195 133.406 128.571 133.31 126.615 133.118C122.678 132.73 117.513 131.961 112.416 130.455C107.265 128.933 102.546 126.763 99.191 123.789C95.9811 120.944 93.9995 117.374 93.9995 112.5L83.9995 112.5ZM58.4995 13.5C63.3655 13.5 67.6152 16.0502 70.9565 20.7214C74.3397 25.4513 76.524 32.0666 76.9465 39.0519C77.3686 46.0306 76.0059 52.9221 72.8345 58.2578C69.7411 63.4623 64.8638 67.3361 57.6547 68.5719L59.3443 78.4281C69.6355 76.6639 76.9458 70.9127 81.4307 63.3672C85.8375 55.9529 87.4437 46.9694 86.9283 38.4481C86.4133 29.9333 83.7537 21.4237 79.09 14.9036C74.3842 8.32482 67.3837 3.49999 58.4995 3.49999L58.4995 13.5ZM133.088 143.499C146.387 143.265 157.934 140.69 166.454 134.93C175.224 129 180.296 120.018 180.991 108.296L171.009 107.704C170.485 116.534 166.872 122.576 160.853 126.646C154.584 130.884 145.24 133.284 132.911 133.501L133.088 143.499ZM180.991 108.296C181.351 102.224 180.416 96.8351 178.121 92.1109C175.825 87.3864 172.317 83.6314 167.992 80.6039C159.533 74.6835 147.544 71.2832 133.971 68.5953L132.028 78.4047C145.514 81.0755 155.661 84.1793 162.257 88.7963C165.459 91.0375 167.707 93.5595 169.127 96.4813C170.546 99.4034 171.286 103.03 171.009 107.704L180.991 108.296ZM134.408 68.7025C123.359 65.4589 114.079 62.0568 107.661 57.2788C101.579 52.7509 98.1883 47.1076 98.4967 38.6829L88.5033 38.3171C88.0578 50.4886 93.3613 59.0998 101.69 65.3001C109.682 71.2504 120.529 75.0502 131.591 78.2975L134.408 68.7025ZM98.4967 38.6829C99.0889 22.5039 114.491 11.8451 133.226 10.9948L132.773 1.00513C111.597 1.9661 89.3726 14.5711 88.5033 38.3171L98.4967 38.6829ZM133.226 10.9948C142.039 10.5949 149.043 11.9363 154.743 15.2877C160.414 18.6217 165.347 24.2701 169.425 33.5174L178.575 29.4826C173.89 18.8579 167.741 11.3289 159.811 6.66715C151.912 2.02283 142.797 0.550235 132.773 1.00513L133.226 10.9948Z" fill="black" fill-opacity="0.33"/>
</svg>
